PathFileType	4	(X/Y/Z)	/Users/niels/Desktop/University/Third Semester/Perception and Action/Exam/Gymnastics Motion Tracking/Code for Gym Tracking/Analyzed Data/Webcam_Backflip/id3_3_trajectory_Sports2D/id3_3_trajectory_Sports2D_px_person00.trc
DataRate	CameraRate	NumFrames	NumMarkers	Units	OrigDataRate	OrigDataStartFrame	OrigNumFrames
29.8125	29.8125	8	22	m	29.8125	60	160
Frame#	Time	Hip			RHip			RKnee			RAnkle			RBigToe			RSmallToe			RHeel			LHip			LKnee			LAnkle			LBigToe			LSmallToe			LHeel			Neck			Head			Nose			RShoulder			RElbow			RWrist			LShoulder			LElbow			LWrist		
		X1	Y1	Z1	X2	Y2	Z2	X3	Y3	Z3	X4	Y4	Z4	X5	Y5	Z5	X6	Y6	Z6	X7	Y7	Z7	X8	Y8	Z8	X9	Y9	Z9	X10	Y10	Z10	X11	Y11	Z11	X12	Y12	Z12	X13	Y13	Z13	X14	Y14	Z14	X15	Y15	Z15	X16	Y16	Z16	X17	Y17	Z17	X18	Y18	Z18	X19	Y19	Z19	X20	Y20	Z20	X21	Y21	Z21	X22	Y22	Z22
60	2.012578616352201	0.9287762620417852	-0.6523410127818478	0.0	0.9319123379946475	-0.6519965449806221	0.0	0.9889433954516138	-0.7609214989383362	0.0	0.9550578313791518	-0.8640203337961708	0.0	0.9963884537416525	-0.8795518740601542	0.0	0.9869693504604956	-0.8827014993198323	0.0	0.9404940868064797	-0.8794253882485543	0.0	0.9221183362950037	-0.6493797701417652	0.0	0.9526021046189886	-0.7578010432259076	0.0	0.9152738215726743	-0.8535662130445961	0.0	0.948605882080416	-0.8806766228525925	0.0	0.9357041433882688	-0.8739820528621043	0.0	0.9051782871309514	-0.8755398403743055	0.0	0.9662138979228942	-0.5044368829162272	0.0	1.0023437665166848	-0.4352488436192612	0.0	1.0078641056749469	-0.4782449454032273	0.0	0.964721271146127	-0.5173760502529804	0.0	1.0407859757210904	-0.5034445934518392	0.0	1.0987955390434843	-0.45135668646373067	0.0	0.9501184829582323	-0.5117559710004577	0.0	0.9870512880443132	-0.517483017979925	0.0	1.025233353525092	-0.5054559881430656	0.0
61	2.0461215932914043	0.9239076509554487	-0.660061771061697	0.0	0.9262650646712479	-0.6600183927241043	0.0	0.9942425209673953	-0.758190138223312	0.0	0.9538097217865563	-0.8561500631488272	0.0	0.9948151176354889	-0.8725638259866727	0.0	0.9858956467307798	-0.8756126775752242	0.0	0.938823719637576	-0.8716242101422822	0.0	0.9181188957863576	-0.6575809946603947	0.0	0.9572953087799959	-0.7563416435191999	0.0	0.914029996898699	-0.8468699277001234	0.0	0.9440380544354735	-0.8756150406765079	0.0	0.9328911177421559	-0.8671630995822122	0.0	0.9035815840488232	-0.8671002881721684	0.0	0.9613193743901368	-0.5146801511390202	0.0	0.9955813182043117	-0.4460214039669571	0.0	1.0018614139579698	-0.4888908818468794	0.0	0.9583261046152027	-0.5250893750615003	0.0	1.0313869080262583	-0.507251138426808	0.0	1.0877413792957527	-0.4513168743871366	0.0	0.948678658100958	-0.523107103341494	0.0	0.9780041494646879	-0.5297851007098341	0.0	1.0149789335404296	-0.5258876717495624	0.0
62	2.079664570230608	0.9186565975267911	-0.657974512184554	0.0	0.9205655922641233	-0.6582888296359433	0.0	0.9994879404806996	-0.7432798184021459	0.0	0.9545598877939155	-0.83861702888155	0.0	0.9957613723564087	-0.8553481893105975	0.0	0.9873166500423863	-0.8586764359843664	0.0	0.9393505440057877	-0.8533942266758364	0.0	0.9136428015322273	-0.655818797268119	0.0	0.9634258614123418	-0.7425782267478499	0.0	0.9150093692803148	-0.8289192097344678	0.0	0.9423614485372771	-0.8570639495264573	0.0	0.9328103784859574	-0.8473729438691412	0.0	0.9038981240339683	-0.8457804554361547	0.0	0.9591991491185402	-0.515182320610986	0.0	0.9930751841383195	-0.4474974977387468	0.0	0.9990774487116658	-0.4906491928703156	0.0	0.9542649918969834	-0.523546689805312	0.0	1.0239560505624818	-0.5072933175562107	0.0	1.0804346170241428	-0.4523519918464762	0.0	0.9499169741556137	-0.5243930374352636	0.0	0.9770019532152379	-0.5338393768646281	0.0	1.015825762935095	-0.5338281292272419	0.0
63	2.113207547169811	0.9137526477037159	-0.647774764699806	0.0	0.9155668796087815	-0.6484030497009327	0.0	1.0042769771560633	-0.7199338881166433	0.0	0.9573454562968273	-0.815060988478403	0.0	0.9990956954460724	-0.8316345879198159	0.0	0.9909801477204129	-0.8353372554163344	0.0	0.9422107624111788	-0.8289543226139768	0.0	0.9095264268270745	-0.6457584857274729	0.0	0.9703426655842254	-0.7200720841724069	0.0	0.9184973713227838	-0.8036479319871683	0.0	0.9443387586972773	-0.8291712479579115	0.0	0.9360496841070658	-0.8195435155633756	0.0	0.9064650574039024	-0.8169065423534334	0.0	0.9587514164009574	-0.5073031058515916	0.0	0.9931428730803651	-0.44084072769020743	0.0	0.9982638356007546	-0.48431873250367147	0.0	0.9518555158638258	-0.5142274344176977	0.0	1.0184216215979747	-0.5030686502913754	0.0	1.0763541176633231	-0.4526126137703222	0.0	0.952338495205916	-0.5171144478339235	0.0	0.9838129482730125	-0.5306284986534722	0.0	1.026078156689245	-0.5286702764024986	0.0
64	2.1467505241090143	0.9097633351172354	-0.6320841344303212	0.0	0.9116658877178748	-0.6328407769700829	0.0	1.007861767134623	-0.6933270839456368	0.0	0.9614427941907602	-0.7901263807916588	0.0	1.0038163628989296	-0.806384116810407	0.0	0.9958633326996941	-0.810382613857455	0.0	0.9466862038457591	-0.8035474101098979	0.0	0.9063781453895613	-0.6299831181537425	0.0	0.97698093735853	-0.6939931124483615	0.0	0.9239353316616238	-0.7767635294443136	0.0	0.9498011625146454	-0.7989693776228235	0.0	0.9423236106851387	-0.7905089834403808	0.0	0.9109369329621131	-0.7874300843101856	0.0	0.9587846459629779	-0.49327199803413	0.0	0.9942852634743228	-0.42818210389131944	0.0	0.998157542040778	-0.4718010928392873	0.0	0.9501703848174325	-0.4993597470653463	0.0	1.0141624339467665	-0.49477409534144123	0.0	1.0741894249669448	-0.45057409847549534	0.0	0.9543695932001778	-0.5035370885423691	0.0	0.9937927757160321	-0.5219126527466962	0.0	1.039699769026511	-0.5147537074606162	0.0
65	2.180293501048218	0.9071378683005751	-0.6138416984823469	0.0	0.9089207167702666	-0.6144624642965902	0.0	1.0096036099338843	-0.6685107332064044	0.0	0.965680262080111	-0.7681785323064836	0.0	1.0084815264051468	-0.7842031835704347	0.0	1.000548249507536	-0.7883476153418315	0.0	0.9514173031674543	-0.7816536332719287	0.0	0.9046804114482334	-0.6114359356506165	0.0	0.9824089487711575	-0.6695989085757144	0.0	0.9302936889660036	-0.7539614475573035	0.0	0.9577071268130853	-0.7735142208633302	0.0	0.9506724793528003	-0.7666552621047851	0.0	0.9165456100807885	-0.7635338591589613	0.0	0.9583063193971911	-0.47557752563667727	0.0	0.9952290597249244	-0.4116876613039177	0.0	0.9978541313235649	-0.4553238398505781	0.0	0.9482496692163237	-0.4813071045733006	0.0	1.0104807354819367	-0.48313000564069475	0.0	1.0726210500435056	-0.44527862379676214	0.0	0.9550931332856	-0.48614277358842617	0.0	1.0023978818773907	-0.508802394607205	0.0	1.0516617826822352	-0.49631465699710453	0.0
66	2.213836477987421	0.9062360406811006	-0.5956189210233543	0.0	0.907316715479394	-0.5958756292374137	0.0	1.0092450744396682	-0.6490567001931862	0.0	0.9684866992782483	-0.7518462138287701	0.0	1.011346329675929	-0.7681743329250466	0.0	1.0033313202616996	-0.7722410588668557	0.0	0.9545214987846132	-0.7657233372866912	0.0	0.9048781338171594	-0.5927476807763433	0.0	0.9860859707210577	-0.6506210719888696	0.0	0.9364016091282278	-0.7387671763842096	0.0	0.9663791860857837	-0.7569847763502061	0.0	0.9596904999087771	-0.75172214707909	0.0	0.9221947227676488	-0.7485602561278045	0.0	0.9566762446812015	-0.45663902270749546	0.0	0.9949773231358413	-0.3932053127418384	0.0	0.9969278723447249	-0.43700210165279596	0.0	0.9453821716675133	-0.46227061795382646	0.0	1.0068229784068004	-0.46915392336151207	0.0	1.07063228605948	-0.4364671132326078	0.0	0.9543963944147104	-0.4673424437275965	0.0	1.0077315257263586	-0.49221905804726934	0.0	1.0599425093971115	-0.47546560805342575	0.0
67	2.2473794549266244	0.9072676528368385	-0.5792931006987057	0.0	0.9070174517594597	-0.5790702416407444	0.0	1.0069109208597011	-0.6365354075455281	0.0	0.9680313312102857	-0.7416136486110695	0.0	1.0104358300867802	-0.7594308802295283	0.0	1.0022228606272245	-0.7631481468890254	0.0	0.9539493052994175	-0.7559965636803115	0.0	0.907311366455834	-0.5758798189792108	0.0	0.9878334551612555	-0.6385272008563783	0.0	0.9411595692702897	-0.7315976822241176	0.0	0.9739835878425491	-0.7499103499341491	0.0	0.9677801480444336	-0.7459530997768554	0.0	0.9266073834917871	-0.7423912753043425	0.0	0.9536239263720931	-0.4385962308226821	0.0	0.9930370298072798	-0.37439298614997585	0.0	0.9952405573274608	-0.41872050635751296	0.0	0.9413196853274647	-0.44418078536060573	0.0	1.0028357180484682	-0.45404634453757553	0.0	1.067518848362313	-0.42458178279904185	0.0	0.9525188023058782	-0.44925970040008933	0.0	1.00973760459735	-0.4734912522124698	0.0	1.064295364514345	-0.45322472022371724	0.0
